# xmcd
#
# Track frame offsets: 
#        150
#        14099
#        25987
#        41240
#        51782
#        68006
#        77603
#        92724
#        105273
#        125432
#        138520
#        151827
#        160833
#        175707
#        188006
#        198867
#        212311
#        227624
#        243081
#
# Disc length: 3447 seconds
#
# Revision: 0
# Processed by: cddbd v1.5.2PL0 Copyright (c) Steve Scherf et al.
# Submitted via: ExactAudioCopy v1.0b1
#
DISCID=e80d7513
DTITLE=Bobby Patterson - Soul Of The Man
DYEAR=2005
DGENRE=R&B
TTITLE0=Right On Jody
TTITLE1=If You Took A Survey
TTITLE2=She Don't Have To See You (To See Through You) (single version
TTITLE2=)
TTITLE3=How Do You Spell Love
TTITLE4=Take Time To Know The Truth
TTITLE5=It Takes Two To Do Wrong
TTITLE6=I Get My Groove From You (single version)
TTITLE7=What Goes Around Comes Around
TTITLE8=I'm In The Wrong
TTITLE9=If Love Can't Do It (It Can't Be Done
TTITLE10=Everything Good To You (Don't Have To Be Good For You)
TTITLE11=Quiet! Do Not Disturb
TTITLE12=Recipe For Peace
TTITLE13=Make Sure You Can Handle It
TTITLE14=I Just Loved You Because I Wanted To
TTITLE15=One Ounce Of Prevention
TTITLE16=This Whole Funky World Is A Ghetto
TTITLE17=I Get My Groove From You (Lp version)
TTITLE18=She Don't Have To See You (To See Through You) (Lp Version)
EXTD=
EXTT0=
EXTT1=
EXTT2=
EXTT3=
EXTT4=
EXTT5=
EXTT6=
EXTT7=
EXTT8=
EXTT9=
EXTT10=
EXTT11=
EXTT12=
EXTT13=
EXTT14=
EXTT15=
EXTT16=
EXTT17=
EXTT18=
PLAYORDER=
